<svg width="1913.975px" height="218.72002563476562px" xmlns="http://www.w3.org/2000/svg" viewBox="0 0 1300 34" style="background: rgb(255, 255, 255);" preserveAspectRatio="xMidYMid"><defs><filter id="editing-vintage" x="-100%" y="-100%" width="300%" height="300%"><feConvolveMatrix in="SourceGraphic" result="extrude" order="5,5" divisor="1" kernelMatrix="1,0,0,0,0,0,1,0,0,0,0,0,1,0,0,0,0,0,1,0,0,0,0,0,1"> </feConvolveMatrix><feFlood flood-color="#e50914" result="flood-extrude"></feFlood><feComposite operator="in" in="flood-extrude" in2="extrude" result="extrude-color"></feComposite><feOffset dx="3" dy="3" in="extrude-color" result="extrude-offset"></feOffset><feColorMatrix in="SourceGraphic" result="stroke" type="matrix" values="0 0 0 0 0 0 0 0 0 0 0 0 0 0 0 0 1 0 0 0 "></feColorMatrix><feColorMatrix in="SourceGraphic" result="fill" type="matrix" values="0 0 0 0 0 0 0 0 0 0 0 0 0 0 0 1 0 0 1 0 "></feColorMatrix><feConvolveMatrix in="stroke" result="inner-shadow" order="5,5" divisor="1" kernelMatrix="1 0 0 0 0 0 1 0 0 0 0 0 1 0 0 0 0 0 1 0 0 0 0 0 1 "></feConvolveMatrix><feOffset dx="1" dy="1" in="inner-shadow" result="offset"></feOffset><feComposite operator="in" in="offset" in2="SourceAlpha" result="comp"></feComposite><feFlood flood-color="#000000" result="flood3"></feFlood><feComposite operator="in" in="flood3" in2="comp" result="comp2"></feComposite><feColorMatrix in="comp2" result="comp3" type="matrix" values="1 0 0 0 0 0 1 0 0 0 0 0 1 0 0 0 0 0 0.5 0 "></feColorMatrix><feFlood flood-color="#ff0a0a" result="flood1"></feFlood><feComposite operator="in" in="flood1" in2="fill" result="fill2"></feComposite><feFlood flood-color="#fff" result="flood2"></feFlood><feComposite operator="in" in="flood2" in2="stroke" result="stroke2"></feComposite><feMerge result="obj"><feMergeNode in="extrude-offset"></feMergeNode><feMergeNode in="fill2"></feMergeNode><feMergeNode in="comp3"></feMergeNode></feMerge><feConvolveMatrix in="SourceAlpha" result="shadow" order="5,5" divisor="1" kernelMatrix="1,0,0,0,0,0,1,0,0,0,0,0,1,0,0,0,0,0,1,0,0,0,0,0,1"></feConvolveMatrix><feOffset dx="9" dy="9" in="shadow" result="shadow-offset"></feOffset><feFlood flood-color="#f5f5f1" result="flood-shadow"></feFlood><feComposite operator="in" in="flood-shadow" in2="shadow-offset" result="shadow-color"></feComposite><feMerge><feMergeNode in="shadow-color"></feMergeNode><feMergeNode in="obj"></feMergeNode></feMerge></filter></defs><g transform="translate(-5,-5)"><g filter="url(#editing-vintage)"><g transform="translate(-448.5185618400574, 127.7299987077713)"><path d="M64.78 0L35.93 0L35.93-15.14L54.67-15.14L54.67-60.67L35.93-60.67L35.93-75.81L64.78-75.81L79.98-60.67L79.98-15.14L64.78 0ZM6.68 0L6.68-75.81L31.94-75.81L31.94 0L6.68 0ZM130.83-60.67L156.08-60.67L156.08 0L130.83 0L130.83-60.67ZM115.57-60.67L115.57-15.14L126.83-15.14L126.83-7.60L119.51 0L105.52 0L90.32-15.14L90.32-60.67L115.57-60.67ZM167.96-83.81L193.21-83.81L193.21 0L167.96 0L167.96-83.81ZM208.52-14.17L208.52-45.53L197.21-45.53L197.21-53.19L204.64-60.67L218.46-60.67L233.66-45.53L233.66-15.14L218.46 0L197.21 0L197.21-14.17L208.52-14.17ZM244.51-83.81L269.76-83.81L269.76 0L244.51 0L244.51-83.81ZM285.07-14.17L285.07-45.53L273.76-45.53L273.76-53.19L281.19-60.67L295.01-60.67L310.21-45.53L310.21-15.14L295.01 0L273.76 0L273.76-14.17L285.07-14.17ZM385.73 0L361.05 0L361.05-45.53L325.12-45.53L325.12-53.07L332.72-60.67L370.60-60.67L385.73-45.53L385.73 0ZM330.21-35.31L357.06-35.31L357.06-24.79L344.03-24.79L344.03-14.17L357.06-14.17L357.06-7.48L349.51 0L330.21 0L320.04-10.00L320.04-25.19L330.21-35.31ZM485.14 0L474.97 0L474.97-28.39L442.18-28.39L426.98-43.59L426.98-60.67L442.18-75.81L450.75-75.81L450.75-48.90L485.60-48.90L500.28-33.71L500.28-15.14L485.14 0ZM474.97-62.16L454.75-62.16L454.75-75.81L485.08-75.81L498.22-62.61L498.22-54.56L474.97-54.56L474.97-62.16ZM426.98-15.14L426.98-22.74L452.23-22.74L452.23-13.71L470.97-13.71L470.97 0L439.72 0L426.98-15.14ZM551.81-30.79L551.81-45.53L541.07-45.53L541.07-52.16L549.52-60.67L564.83-60.67L577.12-46.50L577.12-30.79L551.81-30.79ZM537.01 0L511.76 0L511.76-60.67L537.01-60.67L537.01 0ZM584.94 0L584.94-60.67L610.25-60.67L610.25 0L584.94 0ZM584.94-68.21L584.94-84.32L610.25-84.32L610.25-68.21L584.94-68.21ZM647.44-83.81L647.44 0L622.19 0L622.19-83.81L647.44-83.81ZM689.15-60.61L651.38-8.57L651.38-43.19L663.04-60.56L689.15-60.61ZM673.78-32.33L690.46 0L663.04 0L658.87-12.23L673.78-32.33ZM761.81 0L737.13 0L737.13-45.53L701.20-45.53L701.20-53.07L708.80-60.67L746.67-60.67L761.81-45.53L761.81 0ZM706.28-35.31L733.14-35.31L733.14-24.79L720.11-24.79L720.11-14.17L733.14-14.17L733.14-7.48L725.59 0L706.28 0L696.12-10.00L696.12-25.19L706.28-35.31ZM798.66 0L773.18 0L773.18-60.67L798.66-60.67L798.66 0ZM813.63 0L813.63-45.53L802.78-45.53L802.78-52.16L811.23-60.67L825.28-60.67L838.94-47.02L838.94 0L813.63 0ZM876.59-75.81L876.59-15.14L893.27-15.14L893.27 0L866.53 0L851.33-15.14L851.33-45.53L846.31-45.53L846.31-60.67L851.33-60.67L851.33-67.24L876.59-75.81ZM894.18-45.53L880.58-45.53L880.58-60.67L894.18-60.67L894.18-45.53ZM902.92 0L902.92-83.81L928.17-83.81L928.17 0L902.92 0ZM943.31 0L943.31-45.53L932.17-45.53L932.17-53.19L939.60-60.67L953.42-60.67L968.62-45.53L968.62 0L943.31 0ZM1036.26 0L1011.01 0L1011.01-75.81L1036.26-75.81L1036.26 0ZM1059.23-60.67L1040.26-60.67L1040.26-75.81L1069.11-75.81L1084.31-60.67L1084.31-37.93L1072.65-26.28L1071.85-27.88L1048.14-24.74L1049.06-22.74L1040.26-22.74L1040.26-37.42L1059.23-37.42L1059.23-60.67ZM1072.65-26.28L1086.88 0L1059.91 0L1049.06-22.74L1069.11-22.74L1072.65-26.28ZM1119.90-60.67L1119.90 0L1109.79 0L1094.65-15.14L1094.65-45.53L1109.79-60.67L1119.90-60.67ZM1160.46-24.34L1123.90-24.34L1123.90-34.91L1137.21-34.91L1137.21-45.53L1123.90-45.53L1123.90-60.67L1145.32-60.67L1160.46-45.53L1160.46-24.34ZM1150.29 0L1123.90 0L1123.90-14.17L1157.83-14.17L1157.83-7.60L1150.29 0ZM1212.10-83.81L1237.35-83.81L1237.35 0L1212.10 0L1212.10-83.81ZM1195.94-45.53L1195.94-14.17L1208.10-14.17L1208.10-6.00L1202.11 0L1184.34 0L1170.69-13.65L1170.69-47.02L1184.34-60.67L1208.10-60.67L1208.10-45.53L1195.94-45.53ZM1290.14-83.81L1315.39-83.81L1315.39 0L1290.14 0L1290.14-83.81ZM1273.97-45.53L1273.97-14.17L1286.14-14.17L1286.14-6.00L1280.14 0L1262.38 0L1248.72-13.65L1248.72-47.02L1262.38-60.67L1286.14-60.67L1286.14-45.53L1273.97-45.53ZM1391.89-60.67L1361.10 21.14L1336.87 21.14L1367.61-60.67L1391.89-60.67ZM1342.93-5.08L1320.53-60.67L1345.73-60.67L1354.24-35.99L1342.93-5.08Z" fill="#f00" stroke="#0f0" stroke-width="1.8"></path></g></g><g><g transform="translate(-448.5628733634949, 127.73000192642212)"><path d="M64.78 0L35.93 0L35.93-15.14L54.67-15.14L54.67-60.67L35.93-60.67L35.93-75.81L64.78-75.81L79.98-60.67L79.98-15.14L64.78 0ZM6.68 0L6.68-75.81L31.94-75.81L31.94 0L6.68 0ZM130.83-60.67L156.08-60.67L156.08 0L130.83 0L130.83-60.67ZM115.57-60.67L115.57-15.14L126.83-15.14L126.83-7.60L119.51 0L105.52 0L90.32-15.14L90.32-60.67L115.57-60.67ZM167.96-83.81L193.21-83.81L193.21 0L167.96 0L167.96-83.81ZM208.52-14.17L208.52-45.53L197.21-45.53L197.21-53.19L204.64-60.67L218.46-60.67L233.66-45.53L233.66-15.14L218.46 0L197.21 0L197.21-14.17L208.52-14.17ZM244.51-83.81L269.76-83.81L269.76 0L244.51 0L244.51-83.81ZM285.07-14.17L285.07-45.53L273.76-45.53L273.76-53.19L281.19-60.67L295.01-60.67L310.21-45.53L310.21-15.14L295.01 0L273.76 0L273.76-14.17L285.07-14.17ZM385.73 0L361.05 0L361.05-45.53L325.12-45.53L325.12-53.07L332.72-60.67L370.60-60.67L385.73-45.53L385.73 0ZM330.21-35.31L357.06-35.31L357.06-24.79L344.03-24.79L344.03-14.17L357.06-14.17L357.06-7.48L349.51 0L330.21 0L320.04-10.00L320.04-25.19L330.21-35.31ZM485.14 0L474.97 0L474.97-28.39L442.18-28.39L426.98-43.59L426.98-60.67L442.18-75.81L450.75-75.81L450.75-48.90L485.60-48.90L500.28-33.71L500.28-15.14L485.14 0ZM474.97-62.16L454.75-62.16L454.75-75.81L485.08-75.81L498.22-62.61L498.22-54.56L474.97-54.56L474.97-62.16ZM426.98-15.14L426.98-22.74L452.23-22.74L452.23-13.71L470.97-13.71L470.97 0L439.72 0L426.98-15.14ZM551.81-30.79L551.81-45.53L541.07-45.53L541.07-52.16L549.52-60.67L564.83-60.67L577.12-46.50L577.12-30.79L551.81-30.79ZM537.01 0L511.76 0L511.76-60.67L537.01-60.67L537.01 0ZM584.94 0L584.94-60.67L610.25-60.67L610.25 0L584.94 0ZM584.94-68.21L584.94-84.32L610.25-84.32L610.25-68.21L584.94-68.21ZM647.44-83.81L647.44 0L622.19 0L622.19-83.81L647.44-83.81ZM689.15-60.61L651.38-8.57L651.38-43.19L663.04-60.56L689.15-60.61ZM673.78-32.33L690.46 0L663.04 0L658.87-12.23L673.78-32.33ZM761.81 0L737.13 0L737.13-45.53L701.20-45.53L701.20-53.07L708.80-60.67L746.67-60.67L761.81-45.53L761.81 0ZM706.28-35.31L733.14-35.31L733.14-24.79L720.11-24.79L720.11-14.17L733.14-14.17L733.14-7.48L725.59 0L706.28 0L696.12-10.00L696.12-25.19L706.28-35.31ZM798.66 0L773.18 0L773.18-60.67L798.66-60.67L798.66 0ZM813.63 0L813.63-45.53L802.78-45.53L802.78-52.16L811.23-60.67L825.28-60.67L838.94-47.02L838.94 0L813.63 0ZM876.59-75.81L876.59-15.14L893.27-15.14L893.27 0L866.53 0L851.33-15.14L851.33-45.53L846.31-45.53L846.31-60.67L851.33-60.67L851.33-67.24L876.59-75.81ZM894.18-45.53L880.58-45.53L880.58-60.67L894.18-60.67L894.18-45.53ZM902.92 0L902.92-83.81L928.17-83.81L928.17 0L902.92 0ZM943.31 0L943.31-45.53L932.17-45.53L932.17-53.19L939.60-60.67L953.42-60.67L968.62-45.53L968.62 0L943.31 0ZM1036.26 0L1011.01 0L1011.01-75.81L1036.26-75.81L1036.26 0ZM1059.23-60.67L1040.26-60.67L1040.26-75.81L1069.11-75.81L1084.31-60.67L1084.31-37.93L1072.65-26.28L1071.85-27.88L1048.14-24.74L1049.06-22.74L1040.26-22.74L1040.26-37.42L1059.23-37.42L1059.23-60.67ZM1072.65-26.28L1086.88 0L1059.91 0L1049.06-22.74L1069.11-22.74L1072.65-26.28ZM1119.90-60.67L1119.90 0L1109.79 0L1094.65-15.14L1094.65-45.53L1109.79-60.67L1119.90-60.67ZM1160.46-24.34L1123.90-24.34L1123.90-34.91L1137.21-34.91L1137.21-45.53L1123.90-45.53L1123.90-60.67L1145.32-60.67L1160.46-45.53L1160.46-24.34ZM1150.29 0L1123.90 0L1123.90-14.17L1157.83-14.17L1157.83-7.60L1150.29 0ZM1212.10-83.81L1237.35-83.81L1237.35 0L1212.10 0L1212.10-83.81ZM1195.94-45.53L1195.94-14.17L1208.10-14.17L1208.10-6.00L1202.11 0L1184.34 0L1170.69-13.65L1170.69-47.02L1184.34-60.67L1208.10-60.67L1208.10-45.53L1195.94-45.53ZM1290.14-83.81L1315.39-83.81L1315.39 0L1290.14 0L1290.14-83.81ZM1273.97-45.53L1273.97-14.17L1286.14-14.17L1286.14-6.00L1280.14 0L1262.38 0L1248.72-13.65L1248.72-47.02L1262.38-60.67L1286.14-60.67L1286.14-45.53L1273.97-45.53ZM1391.89-60.67L1361.10 21.14L1336.87 21.14L1367.61-60.67L1391.89-60.67ZM1342.93-5.08L1320.53-60.67L1345.73-60.67L1354.24-35.99L1342.93-5.08Z" fill="none" stroke="#383830" stroke-width="2.1"></path></g></g></g><style>text {
  font-size: 64px;
  font-family: Arial Black;
  dominant-baseline: central;
  text-anchor: middle;
}</style></svg>